<?xml version="1.0" encoding="UTF-8" standalone="no"?><svg xmlns="http://www.w3.org/2000/svg" xmlns:xlink="http://www.w3.org/1999/xlink" contentStyleType="text/css" height="101px" preserveAspectRatio="none" style="width:480px;height:101px;background:#FFFFFF;" version="1.1" viewBox="0 0 480 101" width="480px" zoomAndPan="magnify"><defs/><g><!--entity ma--><g id="elem_ma"><ellipse cx="77" cy="62.5659" fill="#F1F1F1" rx="8" ry="8" style="stroke:#181818;stroke-width:0.5;"/><text fill="#000000" font-family="sans-serif" font-size="14" lengthAdjust="spacing" textLength="142" x="6" y="92.561">monopole absorber</text></g><!--entity mr--><g id="elem_mr"><ellipse cx="182" cy="62.5659" fill="#F1F1F1" rx="8" ry="8" style="stroke:#181818;stroke-width:0.5;"/><text fill="#000000" font-family="sans-serif" font-size="14" lengthAdjust="spacing" textLength="134" x="115" y="92.561">monopole radiator</text></g><!--entity da--><g id="elem_da"><ellipse cx="315" cy="62.5659" fill="#F1F1F1" rx="8" ry="8" style="stroke:#181818;stroke-width:0.5;"/><text fill="#000000" font-family="sans-serif" font-size="14" lengthAdjust="spacing" textLength="114" x="258" y="92.561">dipole absorber</text></g><!--entity dr--><g id="elem_dr"><ellipse cx="420" cy="62.5659" fill="#F1F1F1" rx="8" ry="8" style="stroke:#181818;stroke-width:0.5;"/><text fill="#000000" font-family="sans-serif" font-size="14" lengthAdjust="spacing" textLength="106" x="367" y="92.561">dipole radiator</text></g><!--link ma to mr--><g id="link_ma_mr"><path codeLine="6" d="M86.318,62.5659 C104.7332,62.5659 145.8913,62.5659 167.7397,62.5659 " fill="none" id="ma-to-mr" style="stroke:#181818;stroke-width:1.0;"/><polygon fill="#181818" points="172.853,62.5659,163.853,58.5659,167.853,62.5659,163.853,66.5659,172.853,62.5659" style="stroke:#181818;stroke-width:1.0;"/><text fill="#000000" font-family="sans-serif" font-size="13" lengthAdjust="spacing" textLength="50" x="104.5" y="55.6328">entropy</text></g><!--link mr to da--><g id="link_mr_da"><path codeLine="7" d="M191.142,62.5659 C213.92,62.5659 273.339,62.5659 300.758,62.5659 " fill="none" id="mr-to-da" style="stroke:#181818;stroke-width:1.0;"/><polygon fill="#181818" points="305.794,62.5659,296.794,58.5659,300.794,62.5659,296.794,66.5659,305.794,62.5659" style="stroke:#181818;stroke-width:1.0;"/><text fill="#000000" font-family="sans-serif" font-size="13" lengthAdjust="spacing" textLength="78" x="209.5" y="55.6328">local energy</text></g><!--link da to dr--><g id="link_da_dr"><path codeLine="8" d="M324.318,62.5659 C342.733,62.5659 383.891,62.5659 405.74,62.5659 " fill="none" id="da-to-dr" style="stroke:#181818;stroke-width:1.0;"/><polygon fill="#181818" points="410.853,62.5659,401.853,58.5659,405.853,62.5659,401.853,66.5659,410.853,62.5659" style="stroke:#181818;stroke-width:1.0;"/><text fill="#000000" font-family="sans-serif" font-size="13" lengthAdjust="spacing" textLength="50" x="342.5" y="55.6328">entropy</text></g><!--link dr to ma--><g id="link_dr_ma"><path codeLine="9" d="M410.722,57.7983 C389.619,47.2545 336.119,22.209 288,13.5659 C253.004,7.2801 242.988,7.2365 208,13.5659 C163.3851,21.6368 114.1623,44.0014 90.7876,55.5154 " fill="none" id="dr-to-ma" style="stroke:#181818;stroke-width:1.0;"/><polygon fill="#181818" points="86.2029,57.7986,96.0423,57.367,90.6786,55.5696,92.4759,50.2059,86.2029,57.7986" style="stroke:#181818;stroke-width:1.0;"/><text fill="#000000" font-family="sans-serif" font-size="13" lengthAdjust="spacing" textLength="78" x="209" y="19.6328">local energy</text></g><!--SRC=[PSmn2e0m30NGFQS8xbx0mRjycoA5raZiqjiRH4Jhblp_af0ivCX3qKrtzGdBeRP46nW75r3eWK4Igjx07Y3fVo_ewy-r6541ZxF_uOdZLattHhvu9F0eQq3s8jhQI2ugRoeNBJqz0G00]--></g></svg>