<?xml version="1.0" encoding="UTF-8" standalone="no"?><svg xmlns="http://www.w3.org/2000/svg" xmlns:xlink="http://www.w3.org/1999/xlink" contentStyleType="text/css" height="167px" preserveAspectRatio="none" style="width:480px;height:167px;background:#FFFFFF;" version="1.1" viewBox="0 0 480 167" width="480px" zoomAndPan="magnify"><defs/><g><!--entity env--><g id="elem_env"><ellipse cx="248" cy="14" fill="#F1F1F1" rx="8" ry="8" style="stroke:#181818;stroke-width:0.5;"/><text fill="#000000" font-family="sans-serif" font-size="14" lengthAdjust="spacing" textLength="93" x="201.5" y="43.9951">environment</text></g><!--entity ma--><g id="elem_ma"><ellipse cx="77" cy="129" fill="#F1F1F1" rx="8" ry="8" style="stroke:#181818;stroke-width:0.5;"/><text fill="#000000" font-family="sans-serif" font-size="14" lengthAdjust="spacing" textLength="142" x="6" y="158.9951">monopole absorber</text></g><!--entity mr--><g id="elem_mr"><ellipse cx="182" cy="129" fill="#F1F1F1" rx="8" ry="8" style="stroke:#181818;stroke-width:0.5;"/><text fill="#000000" font-family="sans-serif" font-size="14" lengthAdjust="spacing" textLength="134" x="115" y="158.9951">monopole radiator</text></g><!--entity da--><g id="elem_da"><ellipse cx="315" cy="129" fill="#F1F1F1" rx="8" ry="8" style="stroke:#181818;stroke-width:0.5;"/><text fill="#000000" font-family="sans-serif" font-size="14" lengthAdjust="spacing" textLength="114" x="258" y="158.9951">dipole absorber</text></g><!--entity dr--><g id="elem_dr"><ellipse cx="420" cy="129" fill="#F1F1F1" rx="8" ry="8" style="stroke:#181818;stroke-width:0.5;"/><text fill="#000000" font-family="sans-serif" font-size="14" lengthAdjust="spacing" textLength="106" x="367" y="158.9951">dipole radiator</text></g><!--link env to ma--><g id="link_env_ma"><path codeLine="7" d="M238.806,21.075 C210.391,39.8528 123.8804,97.0206 90.4158,119.1346 " fill="none" id="env-to-ma" style="stroke:#181818;stroke-width:1.0;"/><polygon fill="#181818" points="86.2392,121.8946,95.9531,120.2698,90.4106,119.138,91.5425,113.5955,86.2392,121.8946" style="stroke:#181818;stroke-width:1.0;"/></g><!--link env to mr--><g id="link_env_mr"><path codeLine="8" d="M240.909,23.204 C231.771,34.059 215.781,54.04 205,73 C197.192,86.7319 190.519,103.6395 186.403,115.0553 " fill="none" id="env-to-mr" style="stroke:#181818;stroke-width:1.0;"/><polygon fill="#181818" points="184.697,119.8828,191.4674,112.7301,186.3631,115.1686,183.9246,110.0643,184.697,119.8828" style="stroke:#181818;stroke-width:1.0;"/></g><!--link env to da--><g id="link_env_da"><path codeLine="9" d="M255.273,23.174 C264.642,33.997 281.024,53.9427 292,73 C299.884,86.6886 306.542,103.6046 310.634,115.0341 " fill="none" id="env-to-da" style="stroke:#181818;stroke-width:1.0;"/><polygon fill="#181818" points="312.329,119.8682,313.1261,110.0517,310.6748,115.1498,305.5766,112.6984,312.329,119.8682" style="stroke:#181818;stroke-width:1.0;"/></g><!--link env to dr--><g id="link_env_dr"><path codeLine="10" d="M257.247,21.075 C285.829,39.8528 372.845,97.0206 406.506,119.1346 " fill="none" id="env-to-dr" style="stroke:#181818;stroke-width:1.0;"/><polygon fill="#181818" points="410.707,121.8946,405.3818,113.6095,406.5283,119.149,400.9888,120.2955,410.707,121.8946" style="stroke:#181818;stroke-width:1.0;"/></g><!--link ma to mr--><g id="link_ma_mr"><path codeLine="12" d="M86.318,129 C104.7332,129 145.8913,129 167.7397,129 " fill="none" id="ma-to-mr" style="stroke:#181818;stroke-width:1.0;"/><polygon fill="#181818" points="172.853,129,163.853,125,167.853,129,163.853,133,172.853,129" style="stroke:#181818;stroke-width:1.0;"/><text fill="#000000" font-family="sans-serif" font-size="13" lengthAdjust="spacing" textLength="50" x="104.5" y="122.0669">entropy</text></g><!--link mr to da--><g id="link_mr_da"><path codeLine="13" d="M191.142,129 C213.92,129 273.339,129 300.758,129 " fill="none" id="mr-to-da" style="stroke:#181818;stroke-width:1.0;"/><polygon fill="#181818" points="305.794,129,296.794,125,300.794,129,296.794,133,305.794,129" style="stroke:#181818;stroke-width:1.0;"/><text fill="#000000" font-family="sans-serif" font-size="13" lengthAdjust="spacing" textLength="78" x="209.5" y="122.0669">local energy</text></g><!--link da to dr--><g id="link_da_dr"><path codeLine="14" d="M324.318,129 C342.733,129 383.891,129 405.74,129 " fill="none" id="da-to-dr" style="stroke:#181818;stroke-width:1.0;"/><polygon fill="#181818" points="410.853,129,401.853,125,405.853,129,401.853,133,410.853,129" style="stroke:#181818;stroke-width:1.0;"/><text fill="#000000" font-family="sans-serif" font-size="13" lengthAdjust="spacing" textLength="50" x="342.5" y="122.0669">entropy</text></g><!--link dr to ma--><g id="link_dr_ma"><path codeLine="15" d="M410.722,124.2324 C389.619,113.6886 336.119,88.6431 288,80 C253.004,73.7142 242.988,73.6706 208,80 C163.3851,88.0709 114.1623,110.4355 90.7876,121.9495 " fill="none" id="dr-to-ma" style="stroke:#181818;stroke-width:1.0;"/><polygon fill="#181818" points="86.2029,124.2327,96.0423,123.8011,90.6786,122.0037,92.4759,116.64,86.2029,124.2327" style="stroke:#181818;stroke-width:1.0;"/><text fill="#000000" font-family="sans-serif" font-size="13" lengthAdjust="spacing" textLength="78" x="209" y="86.0669">local energy</text></g><!--SRC=[PSx12iCm20RWUvv2UkyBxB1tiL568CPYmw1lFoibszgR-d-YkLYk31EtTp5jmgrFW1jud_APYJPTrIjSDhM5BOJW7HXImQudi06etFS9h_7VDbbA_WJCy_CuDKeR9Nsd1nQ4oE7XptVJTK_UXFDHrOpL0xRNdYWe_L8AAbVw0G00]--></g></svg>