<?xml version="1.0" encoding="UTF-8" standalone="no"?><svg xmlns="http://www.w3.org/2000/svg" xmlns:xlink="http://www.w3.org/1999/xlink" contentStyleType="text/css" height="101px" preserveAspectRatio="none" style="width:379px;height:101px;background:#FFFFFF;" version="1.1" viewBox="0 0 379 101" width="379px" zoomAndPan="magnify"><defs/><g><!--entity ma--><g id="elem_ma"><ellipse cx="77" cy="62.5659" fill="#F1F1F1" rx="8" ry="8" style="stroke:#181818;stroke-width:0.5;"/><text fill="#000000" font-family="sans-serif" font-size="14" lengthAdjust="spacing" textLength="142" x="6" y="92.561">monopole absorber</text></g><!--entity mr--><g id="elem_mr"><ellipse cx="182" cy="62.5659" fill="#F1F1F1" rx="8" ry="8" style="stroke:#181818;stroke-width:0.5;"/><text fill="#000000" font-family="sans-serif" font-size="14" lengthAdjust="spacing" textLength="134" x="115" y="92.561">monopole radiator</text></g><!--entity da--><g id="elem_da"><ellipse cx="315" cy="62.5659" fill="#F1F1F1" rx="8" ry="8" style="stroke:#181818;stroke-width:0.5;"/><text fill="#000000" font-family="sans-serif" font-size="14" lengthAdjust="spacing" textLength="114" x="258" y="92.561">dipole absorber</text></g><!--link ma to mr--><g id="link_ma_mr"><path codeLine="4" d="M86.318,62.5659 C104.7332,62.5659 145.8913,62.5659 167.7397,62.5659 " fill="none" id="ma-to-mr" style="stroke:#181818;stroke-width:1.0;"/><polygon fill="#181818" points="172.853,62.5659,163.853,58.5659,167.853,62.5659,163.853,66.5659,172.853,62.5659" style="stroke:#181818;stroke-width:1.0;"/><text fill="#000000" font-family="sans-serif" font-size="13" lengthAdjust="spacing" textLength="50" x="104.5" y="55.6328">entropy</text></g><!--link mr to da--><g id="link_mr_da"><path codeLine="5" d="M191.142,62.5659 C213.92,62.5659 273.339,62.5659 300.758,62.5659 " fill="none" id="mr-to-da" style="stroke:#181818;stroke-width:1.0;"/><polygon fill="#181818" points="305.794,62.5659,296.794,58.5659,300.794,62.5659,296.794,66.5659,305.794,62.5659" style="stroke:#181818;stroke-width:1.0;"/><text fill="#000000" font-family="sans-serif" font-size="13" lengthAdjust="spacing" textLength="78" x="209.5" y="55.6328">local energy</text></g><!--link da to ma--><g id="link_da_ma"><path codeLine="6" d="M305.851,55.7744 C289.849,44.3681 255.306,21.8034 222,13.5659 C199.565,8.0171 192.435,8.0171 170,13.5659 C139.5561,21.0955 108.0786,40.5956 90.673,52.6026 " fill="none" id="da-to-ma" style="stroke:#181818;stroke-width:1.0;"/><polygon fill="#181818" points="86.1495,55.7744,95.8149,53.8825,90.2434,52.9038,91.222,47.3323,86.1495,55.7744" style="stroke:#181818;stroke-width:1.0;"/><text fill="#000000" font-family="sans-serif" font-size="13" lengthAdjust="spacing" textLength="50" x="171" y="19.6328">entropy</text></g><!--SRC=[PSj13e0W30J0EwzelFi13_vbeSIG02M52x-tYKOJlMstio5fo96M8bMQM8BleZxgGkXKuC8NA3XXo0tq0Pp-UuOhe7KtHnl5EbJQT7POnR0gIq2sHzHZEhueNde2]--></g></svg>