<?xml version="1.0" encoding="UTF-8" standalone="no"?><svg xmlns="http://www.w3.org/2000/svg" xmlns:xlink="http://www.w3.org/1999/xlink" contentStyleType="text/css" height="170px" preserveAspectRatio="none" style="width:263px;height:170px;background:#FFFFFF;" version="1.1" viewBox="0 0 263 170" width="263px" zoomAndPan="magnify"><defs/><g><!--entity sun--><g id="elem_sun"><ellipse cx="136" cy="14" fill="#F1F1F1" rx="8" ry="8" style="stroke:#181818;stroke-width:0.5;"/><text fill="#000000" font-family="sans-serif" font-size="14" lengthAdjust="spacing" textLength="24" x="124" y="43.9951">sun</text></g><!--entity universe--><g id="elem_universe"><ellipse cx="36" cy="132" fill="#F1F1F1" rx="8" ry="8" style="stroke:#181818;stroke-width:0.5;"/><text fill="#000000" font-family="sans-serif" font-size="14" lengthAdjust="spacing" textLength="60" x="6" y="161.9951">universe</text></g><!--entity earth--><g id="elem_earth"><ellipse cx="136" cy="132" fill="#F1F1F1" rx="8" ry="8" style="stroke:#181818;stroke-width:0.5;"/><text fill="#000000" font-family="sans-serif" font-size="14" lengthAdjust="spacing" textLength="39" x="116.5" y="161.9951">earth</text></g><!--entity oceans--><g id="elem_oceans"><ellipse cx="231" cy="132" fill="#F1F1F1" rx="8" ry="8" style="stroke:#181818;stroke-width:0.5;"/><text fill="#000000" font-family="sans-serif" font-size="14" lengthAdjust="spacing" textLength="50" x="206" y="161.9951">oceans</text></g><!--link sun to universe--><g id="link_sun_universe"><path codeLine="6" d="M128.808,23.342 C111.367,43.575 66.7578,95.321 46.4053,118.9298 " fill="none" id="sun-to-universe" style="stroke:#181818;stroke-width:1.0;"/><polygon fill="#181818" points="43.1266,122.7332,52.0327,118.5282,46.3913,118.9461,45.9733,113.3047,43.1266,122.7332" style="stroke:#181818;stroke-width:1.0;"/></g><!--link sun to earth--><g id="link_sun_earth"><path codeLine="7" d="M136,23.342 C136,43.157 136,93.1961 136,117.4309 " fill="none" id="sun-to-earth" style="stroke:#181818;stroke-width:1.0;"/><polygon fill="#181818" points="136,122.7332,140,113.7332,136,117.7332,132,113.7332,136,122.7332" style="stroke:#181818;stroke-width:1.0;"/></g><!--link sun to oceans--><g id="link_sun_oceans"><path codeLine="8" d="M142.832,23.342 C159.333,43.491 201.43,94.8938 220.874,118.6357 " fill="none" id="sun-to-oceans" style="stroke:#181818;stroke-width:1.0;"/><polygon fill="#181818" points="224.23,122.7332,221.6226,113.2358,221.0621,118.8648,215.4331,118.3044,224.23,122.7332" style="stroke:#181818;stroke-width:1.0;"/></g><!--SRC=[IyuiIiv9LL0gBirJKaWiLW3INCbGiTAypBBKek9Ki0IC0vTDJImgoG1BWLbmyVparCIyOh04XCd51JHKGLVN3c46J02Y4yQ3A0S0]--></g></svg>