<?xml version="1.0" encoding="UTF-8" standalone="no"?><svg xmlns="http://www.w3.org/2000/svg" xmlns:xlink="http://www.w3.org/1999/xlink" contentStyleType="text/css" height="170px" preserveAspectRatio="none" style="width:223px;height:170px;background:#FFFFFF;" version="1.1" viewBox="0 0 223 170" width="223px" zoomAndPan="magnify"><defs/><g><!--entity brain--><g id="elem_brain"><ellipse cx="113" cy="14" fill="#F1F1F1" rx="8" ry="8" style="stroke:#181818;stroke-width:0.5;"/><text fill="#000000" font-family="sans-serif" font-size="14" lengthAdjust="spacing" textLength="37" x="94.5" y="43.9951">brain</text></g><!--entity body--><g id="elem_body"><ellipse cx="24" cy="132" fill="#F1F1F1" rx="8" ry="8" style="stroke:#181818;stroke-width:0.5;"/><text fill="#000000" font-family="sans-serif" font-size="14" lengthAdjust="spacing" textLength="36" x="6" y="161.9951">body</text></g><!--entity heart--><g id="elem_heart"><ellipse cx="113" cy="132" fill="#F1F1F1" rx="8" ry="8" style="stroke:#181818;stroke-width:0.5;"/><text fill="#000000" font-family="sans-serif" font-size="14" lengthAdjust="spacing" textLength="39" x="93.5" y="161.9951">heart</text></g><!--entity skin--><g id="elem_skin"><ellipse cx="202" cy="132" fill="#F1F1F1" rx="8" ry="8" style="stroke:#181818;stroke-width:0.5;"/><text fill="#000000" font-family="sans-serif" font-size="14" lengthAdjust="spacing" textLength="29" x="187.5" y="161.9951">skin</text></g><!--link brain to body--><g id="link_brain_body"><path codeLine="6" d="M106.599,23.342 C91.1403,43.491 51.7021,94.8938 33.4864,118.6357 " fill="none" id="brain-to-body" style="stroke:#181818;stroke-width:1.0;"/><polygon fill="#181818" points="30.3427,122.7332,38.9948,118.0278,33.3864,118.7664,32.6479,113.1579,30.3427,122.7332" style="stroke:#181818;stroke-width:1.0;"/></g><!--link brain to heart--><g id="link_brain_heart"><path codeLine="7" d="M113,23.342 C113,43.157 113,93.1961 113,117.4309 " fill="none" id="brain-to-heart" style="stroke:#181818;stroke-width:1.0;"/><polygon fill="#181818" points="113,122.7332,117,113.7332,113,117.7332,109,113.7332,113,122.7332" style="stroke:#181818;stroke-width:1.0;"/></g><!--link brain to skin--><g id="link_brain_skin"><path codeLine="8" d="M119.401,23.342 C134.86,43.491 174.298,94.8938 192.514,118.6357 " fill="none" id="brain-to-skin" style="stroke:#181818;stroke-width:1.0;"/><polygon fill="#181818" points="195.657,122.7332,193.3521,113.1578,192.6134,118.7662,187.005,118.0275,195.657,122.7332" style="stroke:#181818;stroke-width:1.0;"/></g><!--SRC=[IyuiIiv9LL1AAahCp5DII2nM0BEuac7Y-IcL464W0owQaPfOL08M1hFWuiNPK4D032uki54Akhfs4Dq8BaGNWWzI3W00]--></g></svg>