<?xml version="1.0" encoding="UTF-8" standalone="no"?><svg xmlns="http://www.w3.org/2000/svg" xmlns:xlink="http://www.w3.org/1999/xlink" contentStyleType="text/css" height="170px" preserveAspectRatio="none" style="width:224px;height:170px;background:#FFFFFF;" version="1.1" viewBox="0 0 224 170" width="224px" zoomAndPan="magnify"><defs/><g><!--entity neurons--><g id="elem_neurons"><ellipse cx="113.5" cy="14" fill="#F1F1F1" rx="8" ry="8" style="stroke:#181818;stroke-width:0.5;"/><text fill="#000000" font-family="sans-serif" font-size="14" lengthAdjust="spacing" textLength="57" x="85" y="43.9951">neurons</text></g><!--entity brain--><g id="elem_brain"><ellipse cx="24.5" cy="132" fill="#F1F1F1" rx="8" ry="8" style="stroke:#181818;stroke-width:0.5;"/><text fill="#000000" font-family="sans-serif" font-size="14" lengthAdjust="spacing" textLength="37" x="6" y="161.9951">brain</text></g><!--entity heart--><g id="elem_heart"><ellipse cx="113.5" cy="132" fill="#F1F1F1" rx="8" ry="8" style="stroke:#181818;stroke-width:0.5;"/><text fill="#000000" font-family="sans-serif" font-size="14" lengthAdjust="spacing" textLength="39" x="94" y="161.9951">heart</text></g><!--entity skin--><g id="elem_skin"><ellipse cx="202.5" cy="132" fill="#F1F1F1" rx="8" ry="8" style="stroke:#181818;stroke-width:0.5;"/><text fill="#000000" font-family="sans-serif" font-size="14" lengthAdjust="spacing" textLength="29" x="188" y="161.9951">skin</text></g><!--link neurons to brain--><g id="link_neurons_brain"><path codeLine="6" d="M107.099,23.342 C91.6403,43.491 52.2021,94.8938 33.9864,118.6357 " fill="none" id="neurons-to-brain" style="stroke:#181818;stroke-width:1.0;"/><polygon fill="#181818" points="30.8427,122.7332,39.4948,118.0278,33.8864,118.7664,33.1479,113.1579,30.8427,122.7332" style="stroke:#181818;stroke-width:1.0;"/></g><!--link neurons to heart--><g id="link_neurons_heart"><path codeLine="7" d="M113.5,23.342 C113.5,43.157 113.5,93.1961 113.5,117.4309 " fill="none" id="neurons-to-heart" style="stroke:#181818;stroke-width:1.0;"/><polygon fill="#181818" points="113.5,122.7332,117.5,113.7332,113.5,117.7332,109.5,113.7332,113.5,122.7332" style="stroke:#181818;stroke-width:1.0;"/></g><!--link neurons to skin--><g id="link_neurons_skin"><path codeLine="8" d="M119.901,23.342 C135.36,43.491 174.798,94.8938 193.014,118.6357 " fill="none" id="neurons-to-skin" style="stroke:#181818;stroke-width:1.0;"/><polygon fill="#181818" points="196.157,122.7332,193.8521,113.1578,193.1134,118.7662,187.505,118.0275,196.157,122.7332" style="stroke:#181818;stroke-width:1.0;"/></g><!--SRC=[IyuiIiv9LL3AIoqjoiyhLb98B5Q0ihcIeN99HOcPUM0PC0ikdf6QM5G25WUpuEB5sL3b80ON5zGu1LrTEwW1o28GhSWY85q0]--></g></svg>